<svg width="190" height="25" viewBox="0 0 190 25" fill="none" xmlns="http://www.w3.org/2000/svg">
<path d="M11.0557 9.312C12.0477 9.536 12.8317 10.032 13.4077 10.8C13.9997 11.552 14.2957 12.416 14.2957 13.392C14.2957 14.832 13.7997 15.96 12.8077 16.776C11.8157 17.592 10.4237 18 8.63172 18H0.25572V1.08H8.36772C10.0957 1.08 11.4477 1.464 12.4237 2.232C13.4157 3 13.9117 4.08 13.9117 5.472C13.9117 6.464 13.6477 7.296 13.1197 7.968C12.6077 8.624 11.9197 9.072 11.0557 9.312ZM4.95972 7.8H7.33572C8.51972 7.8 9.11172 7.312 9.11172 6.336C9.11172 5.328 8.51972 4.824 7.33572 4.824H4.95972V7.8ZM7.69572 14.208C8.87972 14.208 9.47172 13.712 9.47172 12.72C9.47172 12.208 9.31172 11.816 8.99172 11.544C8.68772 11.272 8.24772 11.136 7.67172 11.136H4.95972V14.208H7.69572ZM32.0533 4.536V18H27.3253V16.08C26.9253 16.688 26.3733 17.184 25.6693 17.568C24.9653 17.936 24.1573 18.12 23.2453 18.12C21.6773 18.12 20.4373 17.608 19.5253 16.584C18.6293 15.544 18.1813 14.136 18.1813 12.36V4.536H22.8613V11.76C22.8613 12.528 23.0613 13.136 23.4613 13.584C23.8773 14.016 24.4213 14.232 25.0933 14.232C25.7813 14.232 26.3253 14.016 26.7253 13.584C27.1253 13.136 27.3253 12.528 27.3253 11.76V4.536H32.0533ZM35.8824 11.256C35.8824 9.864 36.1304 8.648 36.6264 7.608C37.1384 6.568 37.8344 5.768 38.7144 5.208C39.5944 4.648 40.5704 4.368 41.6424 4.368C42.5064 4.368 43.2744 4.552 43.9464 4.92C44.6344 5.272 45.1704 5.76 45.5544 6.384V0.24H50.2824V18H45.5544V16.128C45.1864 16.752 44.6664 17.248 43.9944 17.616C43.3224 17.984 42.5304 18.168 41.6184 18.168C40.5464 18.168 39.5704 17.888 38.6904 17.328C37.8264 16.768 37.1384 15.968 36.6264 14.928C36.1304 13.872 35.8824 12.648 35.8824 11.256ZM45.5784 11.256C45.5784 10.392 45.3384 9.712 44.8584 9.216C44.3944 8.72 43.8184 8.472 43.1304 8.472C42.4264 8.472 41.8424 8.72 41.3784 9.216C40.9144 9.696 40.6824 10.376 40.6824 11.256C40.6824 12.12 40.9144 12.808 41.3784 13.32C41.8424 13.816 42.4264 14.064 43.1304 14.064C43.8184 14.064 44.3944 13.816 44.8584 13.32C45.3384 12.824 45.5784 12.136 45.5784 11.256ZM59.8509 4.368C60.7629 4.368 61.5549 4.552 62.2269 4.92C62.9149 5.288 63.4429 5.784 63.8109 6.408V4.536H68.5149V17.856C68.5149 19.12 68.2749 20.256 67.7949 21.264C67.3149 22.288 66.5629 23.104 65.5389 23.712C64.5309 24.32 63.2509 24.624 61.6989 24.624C59.6189 24.624 57.9549 24.136 56.7069 23.16C55.4589 22.184 54.7469 20.856 54.5709 19.176H59.2029C59.2989 19.608 59.5389 19.944 59.9229 20.184C60.3069 20.424 60.8029 20.544 61.4109 20.544C63.0109 20.544 63.8109 19.648 63.8109 17.856V16.128C63.4429 16.752 62.9149 17.248 62.2269 17.616C61.5549 17.984 60.7629 18.168 59.8509 18.168C58.7789 18.168 57.8029 17.888 56.9229 17.328C56.0589 16.768 55.3709 15.968 54.8589 14.928C54.3629 13.872 54.1149 12.648 54.1149 11.256C54.1149 9.864 54.3629 8.648 54.8589 7.608C55.3709 6.568 56.0589 5.768 56.9229 5.208C57.8029 4.648 58.7789 4.368 59.8509 4.368ZM63.8109 11.256C63.8109 10.392 63.5709 9.712 63.0909 9.216C62.6269 8.72 62.0509 8.472 61.3629 8.472C60.6589 8.472 60.0749 8.72 59.6109 9.216C59.1469 9.696 58.9149 10.376 58.9149 11.256C58.9149 12.12 59.1469 12.808 59.6109 13.32C60.0749 13.816 60.6589 14.064 61.3629 14.064C62.0509 14.064 62.6269 13.816 63.0909 13.32C63.5709 12.824 63.8109 12.136 63.8109 11.256ZM85.9794 11.112C85.9794 11.48 85.9554 11.848 85.9074 12.216H77.0034C77.0514 12.952 77.2514 13.504 77.6034 13.872C77.9714 14.224 78.4354 14.4 78.9954 14.4C79.7794 14.4 80.3394 14.048 80.6754 13.344H85.6914C85.4834 14.272 85.0754 15.104 84.4674 15.84C83.8754 16.56 83.1234 17.128 82.2114 17.544C81.2994 17.96 80.2914 18.168 79.1874 18.168C77.8594 18.168 76.6754 17.888 75.6354 17.328C74.6114 16.768 73.8034 15.968 73.2114 14.928C72.6354 13.888 72.3474 12.664 72.3474 11.256C72.3474 9.848 72.6354 8.632 73.2114 7.608C73.7874 6.568 74.5874 5.768 75.6114 5.208C76.6514 4.648 77.8434 4.368 79.1874 4.368C80.5154 4.368 81.6914 4.64 82.7154 5.184C83.7394 5.728 84.5394 6.512 85.1154 7.536C85.6914 8.544 85.9794 9.736 85.9794 11.112ZM81.1794 9.936C81.1794 9.36 80.9874 8.912 80.6034 8.592C80.2194 8.256 79.7394 8.088 79.1634 8.088C78.5874 8.088 78.1154 8.248 77.7474 8.568C77.3794 8.872 77.1394 9.328 77.0274 9.936H81.1794ZM97.7685 13.992V18H95.7285C92.2885 18 90.5685 16.296 90.5685 12.888V8.448H88.9125V4.536H90.5685V1.272H95.2965V4.536H97.7445V8.448H95.2965V12.96C95.2965 13.328 95.3765 13.592 95.5365 13.752C95.7125 13.912 96.0005 13.992 96.4005 13.992H97.7685Z" fill="#141627"/>
<path d="M112.646 9.312C113.638 9.536 114.422 10.032 114.998 10.8C115.59 11.552 115.886 12.416 115.886 13.392C115.886 14.832 115.39 15.96 114.398 16.776C113.406 17.592 112.014 18 110.222 18H101.846V1.08H109.958C111.686 1.08 113.038 1.464 114.014 2.232C115.006 3 115.502 4.08 115.502 5.472C115.502 6.464 115.238 7.296 114.71 7.968C114.198 8.624 113.51 9.072 112.646 9.312ZM106.55 7.8H108.926C110.11 7.8 110.702 7.312 110.702 6.336C110.702 5.328 110.11 4.824 108.926 4.824H106.55V7.8ZM109.286 14.208C110.47 14.208 111.062 13.712 111.062 12.72C111.062 12.208 110.902 11.816 110.582 11.544C110.278 11.272 109.838 11.136 109.262 11.136H106.55V14.208H109.286ZM133.644 4.536V18H128.916V16.08C128.516 16.688 127.964 17.184 127.26 17.568C126.556 17.936 125.748 18.12 124.836 18.12C123.268 18.12 122.028 17.608 121.116 16.584C120.22 15.544 119.772 14.136 119.772 12.36V4.536H124.452V11.76C124.452 12.528 124.652 13.136 125.052 13.584C125.468 14.016 126.012 14.232 126.684 14.232C127.372 14.232 127.916 14.016 128.316 13.584C128.716 13.136 128.916 12.528 128.916 11.76V4.536H133.644ZM137.473 11.256C137.473 9.864 137.721 8.648 138.217 7.608C138.729 6.568 139.425 5.768 140.305 5.208C141.185 4.648 142.161 4.368 143.233 4.368C144.097 4.368 144.865 4.552 145.537 4.92C146.225 5.272 146.761 5.76 147.145 6.384V0.24H151.873V18H147.145V16.128C146.777 16.752 146.257 17.248 145.585 17.616C144.913 17.984 144.121 18.168 143.209 18.168C142.137 18.168 141.161 17.888 140.281 17.328C139.417 16.768 138.729 15.968 138.217 14.928C137.721 13.872 137.473 12.648 137.473 11.256ZM147.169 11.256C147.169 10.392 146.929 9.712 146.449 9.216C145.985 8.72 145.409 8.472 144.721 8.472C144.017 8.472 143.433 8.72 142.969 9.216C142.505 9.696 142.273 10.376 142.273 11.256C142.273 12.12 142.505 12.808 142.969 13.32C143.433 13.816 144.017 14.064 144.721 14.064C145.409 14.064 145.985 13.816 146.449 13.32C146.929 12.824 147.169 12.136 147.169 11.256ZM155.705 11.256C155.705 9.864 155.953 8.648 156.449 7.608C156.961 6.568 157.657 5.768 158.537 5.208C159.417 4.648 160.393 4.368 161.465 4.368C162.329 4.368 163.097 4.552 163.769 4.92C164.457 5.272 164.993 5.76 165.377 6.384V0.24H170.105V18H165.377V16.128C165.009 16.752 164.489 17.248 163.817 17.616C163.145 17.984 162.353 18.168 161.441 18.168C160.369 18.168 159.393 17.888 158.513 17.328C157.649 16.768 156.961 15.968 156.449 14.928C155.953 13.872 155.705 12.648 155.705 11.256ZM165.401 11.256C165.401 10.392 165.161 9.712 164.681 9.216C164.217 8.72 163.641 8.472 162.953 8.472C162.249 8.472 161.665 8.72 161.201 9.216C160.737 9.696 160.505 10.376 160.505 11.256C160.505 12.12 160.737 12.808 161.201 13.32C161.665 13.816 162.249 14.064 162.953 14.064C163.641 14.064 164.217 13.816 164.681 13.32C165.161 12.824 165.401 12.136 165.401 11.256ZM189.202 4.536L180.658 24.408H175.546L178.762 17.424L173.242 4.536H178.474L181.306 12.168L184.042 4.536H189.202Z" fill="#299D91"/>
</svg>
