<svg width="103" height="19" viewBox="0 0 103 19" fill="none" xmlns="http://www.w3.org/2000/svg">
<path d="M8.88 1.2C10.272 1.2 11.4 1.512 12.264 2.136C13.144 2.744 13.584 3.48 13.584 4.344C13.584 4.984 13.368 5.48 12.936 5.832C12.504 6.184 11.92 6.36 11.184 6.36C11.184 4.296 10.32 3.264 8.592 3.264C7.12 3.264 5.976 3.864 5.16 5.064C4.36 6.248 3.96 7.864 3.96 9.912C3.96 11.944 4.352 13.504 5.136 14.592C5.92 15.68 7.16 16.224 8.856 16.224C10.552 16.224 12.048 15.736 13.344 14.76C13.6 14.92 13.728 15.176 13.728 15.528C13.728 16.184 13.16 16.824 12.024 17.448C10.888 18.056 9.552 18.36 8.016 18.36C5.648 18.36 3.856 17.632 2.64 16.176C1.44 14.704 0.84 12.64 0.84 9.984C0.84 7.328 1.52 5.2 2.88 3.6C4.256 2 6.256 1.2 8.88 1.2ZM26.7015 16.92C26.7015 17.88 26.0775 18.36 24.8295 18.36C23.5815 18.36 22.7735 17.944 22.4055 17.112C21.3975 17.944 20.2855 18.36 19.0695 18.36C17.8535 18.36 16.8935 18.064 16.1895 17.472C15.5015 16.864 15.1575 16.04 15.1575 15C15.1575 13.944 15.5655 13.08 16.3815 12.408C17.1975 11.736 18.4855 11.4 20.2455 11.4C20.9335 11.4 21.5895 11.448 22.2135 11.544V10.488C22.2135 9.384 22.0295 8.6 21.6615 8.136C21.3095 7.672 20.8215 7.44 20.1975 7.44C19.5735 7.44 19.0695 7.64 18.6855 8.04C18.3175 8.44 18.1335 8.984 18.1335 9.672C17.4935 9.736 16.9575 9.64 16.5255 9.384C16.1095 9.112 15.9015 8.704 15.9015 8.16C15.9015 7.392 16.3015 6.76 17.1015 6.264C17.9015 5.768 18.9335 5.52 20.1975 5.52C23.4935 5.52 25.1415 7.12 25.1415 10.32V16.728L26.7015 16.92ZM22.2135 13.344C21.6375 13.136 21.0295 13.032 20.3895 13.032C19.7655 13.032 19.2455 13.184 18.8295 13.488C18.4135 13.776 18.2055 14.192 18.2055 14.736C18.2055 15.856 18.7815 16.416 19.9335 16.416C20.7495 16.416 21.5095 16.184 22.2135 15.72V13.344ZM35.5451 6.408C35.9451 6.76 36.1451 7.216 36.1451 7.776C36.1451 8.336 35.9611 8.768 35.5931 9.072C35.2411 9.376 34.7851 9.488 34.2251 9.408C34.2251 8.816 33.9931 8.32 33.5291 7.92C33.0651 7.504 32.5451 7.296 31.9691 7.296C31.4091 7.296 30.9771 7.408 30.6731 7.632C30.3691 7.84 30.2171 8.12 30.2171 8.472C30.2171 8.824 30.4331 9.144 30.8651 9.432C31.3131 9.704 31.9371 10 32.7371 10.32C33.5531 10.64 34.1371 10.896 34.4891 11.088C34.8411 11.264 35.2171 11.504 35.6171 11.808C36.3851 12.384 36.7691 13.24 36.7691 14.376C36.7691 15.496 36.3131 16.44 35.4011 17.208C34.4891 17.976 33.2731 18.36 31.7531 18.36C30.6331 18.36 29.6491 18.152 28.8011 17.736C27.9691 17.32 27.5531 16.696 27.5531 15.864C27.5531 15.304 27.7531 14.872 28.1531 14.568C28.5531 14.248 29.0251 14.088 29.5691 14.088C29.7771 15.72 30.7051 16.536 32.3531 16.536C33.6811 16.536 34.3451 16.096 34.3451 15.216C34.3451 14.64 33.9931 14.176 33.2891 13.824C32.9051 13.616 32.4411 13.408 31.8971 13.2C31.3531 12.992 30.9211 12.816 30.6011 12.672C30.2971 12.512 29.9611 12.312 29.5931 12.072C29.2251 11.832 28.9211 11.584 28.6811 11.328C28.1531 10.736 27.8891 10.016 27.8891 9.168C27.8891 8.016 28.3531 7.12 29.2811 6.48C30.2091 5.84 31.3211 5.52 32.6171 5.52C33.9131 5.52 34.8891 5.816 35.5451 6.408ZM51.3994 18H46.0954V17.808C46.0954 16.928 46.4474 16.456 47.1514 16.392L47.8474 16.344V10.44C47.8474 9.496 47.6554 8.84 47.2714 8.472C46.8874 8.104 46.2714 7.92 45.4234 7.92C44.5754 7.92 43.7194 8.288 42.8554 9.024V16.296L44.5594 16.44C44.6554 17.48 44.2954 18 43.4794 18H38.1274V17.808C38.1274 16.928 38.4794 16.456 39.1834 16.392L39.9274 16.344V2.976L38.9914 2.88C38.3354 2.816 38.0394 2.32 38.1034 1.392L42.8554 0.863999V6.984C43.9914 6.008 45.1674 5.52 46.3834 5.52C47.5994 5.52 48.6314 5.936 49.4794 6.768C50.3434 7.584 50.7754 8.848 50.7754 10.56V16.296L52.4794 16.44C52.5754 17.48 52.2154 18 51.3994 18Z" fill="black"/>
<path d="M61.8253 1.2C63.2173 1.2 64.3453 1.512 65.2093 2.136C66.0893 2.744 66.5293 3.48 66.5293 4.344C66.5293 4.984 66.3133 5.48 65.8813 5.832C65.4493 6.184 64.8653 6.36 64.1293 6.36C64.1293 4.296 63.2653 3.264 61.5373 3.264C60.0653 3.264 58.9213 3.864 58.1053 5.064C57.3053 6.248 56.9053 7.864 56.9053 9.912C56.9053 11.944 57.2973 13.504 58.0813 14.592C58.8653 15.68 60.1053 16.224 61.8013 16.224C63.4973 16.224 64.9933 15.736 66.2893 14.76C66.5453 14.92 66.6733 15.176 66.6733 15.528C66.6733 16.184 66.1053 16.824 64.9693 17.448C63.8333 18.056 62.4973 18.36 60.9613 18.36C58.5933 18.36 56.8013 17.632 55.5853 16.176C54.3853 14.704 53.7853 12.64 53.7853 9.984C53.7853 7.328 54.4653 5.2 55.8253 3.6C57.2013 2 59.2013 1.2 61.8253 1.2ZM75.8068 8.64C75.3588 7.792 74.7188 7.368 73.8868 7.368C73.0548 7.368 72.4068 7.784 71.9428 8.616C71.4948 9.448 71.2708 10.584 71.2708 12.024C71.2708 13.448 71.4948 14.56 71.9428 15.36C72.4068 16.144 73.0548 16.536 73.8868 16.536C74.7188 16.536 75.3588 16.152 75.8068 15.384C76.2708 14.6 76.5028 13.496 76.5028 12.072C76.5028 10.632 76.2708 9.488 75.8068 8.64ZM68.2228 12.144C68.2228 10.096 68.7268 8.48 69.7348 7.296C70.7588 6.112 72.1748 5.52 73.9828 5.52C75.7908 5.52 77.1668 6.088 78.1108 7.224C79.0708 8.36 79.5508 9.936 79.5508 11.952C79.5508 13.952 79.0388 15.52 78.0148 16.656C76.9908 17.792 75.5588 18.36 73.7188 18.36C71.8948 18.36 70.5188 17.832 69.5908 16.776C68.6788 15.72 68.2228 14.176 68.2228 12.144ZM85.7426 7.632C86.1266 7.12 86.6706 6.64 87.3746 6.192C88.0946 5.744 88.7106 5.52 89.2226 5.52C89.7506 5.52 90.1906 5.688 90.5426 6.024C90.8946 6.36 91.0706 6.92 91.0706 7.704C91.0706 8.472 90.8066 9.088 90.2786 9.552C90.0066 9.76 89.5506 9.824 88.9106 9.744C88.9106 9.216 88.8626 8.816 88.7666 8.544C88.6706 8.256 88.5666 8.088 88.4546 8.04C88.3426 7.976 88.1906 7.944 87.9986 7.944C87.1986 7.944 86.4786 8.464 85.8386 9.504V16.296L87.7826 16.44C87.8786 17.48 87.5186 18 86.7026 18H81.1586C81.1586 18 81.1586 17.936 81.1586 17.808C81.1586 16.928 81.5106 16.456 82.2146 16.392L82.9106 16.344V7.752L81.8546 7.632C81.3586 7.584 81.1106 7.104 81.1106 6.192L85.4546 5.64L85.6706 7.632H85.7426ZM95.013 12.12V12.384C95.013 13.68 95.245 14.648 95.709 15.288C96.189 15.912 97.005 16.224 98.157 16.224C99.325 16.224 100.469 15.784 101.589 14.904C101.909 15.144 102.069 15.52 102.069 16.032C102.069 16.528 101.621 17.04 100.725 17.568C99.845 18.096 98.741 18.36 97.413 18.36C95.685 18.36 94.341 17.856 93.381 16.848C92.437 15.824 91.965 14.28 91.965 12.216C91.965 10.136 92.477 8.504 93.501 7.32C94.541 6.12 95.965 5.52 97.773 5.52C99.309 5.52 100.453 6 101.205 6.96C101.973 7.92 102.341 9.184 102.309 10.752V12.12H95.013ZM97.509 7.44C96.197 7.44 95.405 8.448 95.133 10.464H99.501C99.469 9.376 99.285 8.6 98.949 8.136C98.613 7.672 98.133 7.44 97.509 7.44Z" fill="#0E545E"/>
</svg>
